<?xml version="1.0" encoding="utf-8"?>
<!-- Generator: Adobe Illustrator 19.1.1, SVG Export Plug-In . SVG Version: 6.00 Build 0)  -->
<svg version="1.1"
	 id="svg2" xmlns:rdf="http://www.w3.org/1999/02/22-rdf-syntax-ns#" xmlns:svg="http://www.w3.org/2000/svg" xmlns:cc="http://creativecommons.org/ns#" xmlns:dc="http://purl.org/dc/elements/1.1/"
	 xmlns="http://www.w3.org/2000/svg" xmlns:xlink="http://www.w3.org/1999/xlink" x="0px" y="0px" viewBox="-206 357.4 181.3 127.5"
	 style="enable-background:new -206 357.4 181.3 127.5;" xml:space="preserve">
<style type="text/css">
	.st0{clip-path:url(#SVGID_2_);}
	.st1{fill:#FDCB0B;}
</style>
<g id="g10" transform="matrix(1.25,0,0,-1.25,0,127.5)">
	<g id="g12">
		<g>
			<defs>
				<rect id="SVGID_1_" x="-182.9" y="-298.7" width="181.3" height="127.5"/>
			</defs>
			<clipPath id="SVGID_2_">
				<use xlink:href="#SVGID_1_"  style="overflow:visible;"/>
			</clipPath>
			<g id="g14" class="st0">
				<g id="g20" transform="translate(20.4111,86.4487)">
					<path id="path22" class="st1" d="M-164.8-285.9c1.7-1.7,1.7-4.5,0-6.2c-1.7-1.7-4.5-1.7-6.2,0c-1.7,1.7-6.8,9.6-5.1,11.3
						C-174.4-279.1-166.5-284.2-164.8-285.9"/>
				</g>
				<g id="g24" transform="translate(27.4019,17.2412)">
					<path id="path26" d="M-164.8-285.9h-4.8v-1.3h4.8c2.2,0,3.2-0.4,3.2-1.3v-0.9c0-1-1.1-1.5-3.3-1.5h-4.8c-2.2,0-3.4,0.5-3.4,1.6
						v0.4h1.3c0.9,0,1.5-0.1,1.8-0.4c0.1-0.2,0.2-0.3,0.2-0.3h4.7v1.2h-4.7c-1,0-1.7,0-2.1,0.1c-0.9,0.2-1.3,0.6-1.3,1.2v1
						c0,1,1.1,1.5,3.3,1.5h4.8c0.7,0,1.4-0.1,2-0.2c0.9-0.2,1.4-0.6,1.4-1.2v-0.7C-163.6-286.7-164.7-286.5-164.8-285.9"/>
				</g>
				<path id="path28" d="M-121.5-268.7h-4.9v-3.8h4.9V-268.7z M-121.4-273.6h-5.1c-0.4,0-0.8,0-1.2,0.1c-1.3,0.2-2,0.8-2,1.7v2.6
					c0,1.2,1.1,1.8,3.3,1.8h5.1c0.4,0,0.7,0,1,0c1.5-0.1,2.3-0.7,2.3-1.8v-2.6C-118.2-273-119.3-273.6-121.4-273.6"/>
				<g id="g30" transform="translate(53.0337,12.3936)">
					<path id="path32" d="M-164.8-285.9c-0.4-0.1-1-0.1-2-0.1v8.8h3.3v-7.5C-163.5-285.3-163.9-285.7-164.8-285.9"/>
				</g>
				<g id="g34" transform="translate(69.3774,12.3213)">
					<path id="path36" d="M-164.8-285.9h-0.5c-0.1,0-0.2,0-0.4,0c-0.7,0.1-1.4,0.3-2.1,0.6c-0.8-0.4-1.8-0.7-3-0.7
						c-1,0-1.9,0.1-2.7,0.3c-1.2,0.3-1.9,0.8-1.9,1.5v4.4h1c0.3,0,0.5,0,0.8,0c1-0.1,1.6-0.5,1.6-1.2v-3.7h3.9v5.1h3.4V-285.9z"/>
				</g>
				<g id="g38" transform="translate(78.5215,12.2734)">
					<path id="path40" d="M-164.8-285.9c-0.3,0-0.7,0-1.1,0.1c-1.1,0.1-1.7,0.5-1.7,1.2v3.6h-2v1.3h2v2.5c1,0,1.6,0,2-0.1
						c0.9-0.2,1.3-0.6,1.3-1.1v-1.3h2.4c0-0.2,0-0.3-0.1-0.5c-0.3-0.6-1-0.8-2.3-0.8v-3.7h2.4C-161.8-285.5-162.8-285.9-164.8-285.9
						"/>
				</g>
				<g id="g42" transform="translate(89.2734,14.0254)">
					<path id="path44" d="M-164.8-285.9c0-0.6-0.3-1.1-1-1.4c-0.5-0.2-1.1-0.4-1.8-0.4h-0.6v6.3h3.4V-285.9z M-168.2-278.9h3.4v-1.3
						h-3.4V-278.9z"/>
				</g>
				<path id="path46" d="M-62.9-268.7h-4.9v-3.8h4.9V-268.7z M-62.8-273.6h-5.1c-0.4,0-0.8,0-1.2,0.1c-1.3,0.2-2,0.8-2,1.7v2.6
					c0,1.2,1.1,1.8,3.3,1.8h5.1c0.4,0,0.7,0,1,0c1.5-0.1,2.3-0.7,2.3-1.8v-2.6C-59.5-273-60.6-273.6-62.8-273.6"/>
				<g id="g48" transform="translate(118.9365,12.3691)">
					<path id="path50" d="M-164.8-285.9c-1.3,0.2-2,0.7-2,1.6v3.3h-3.9v-5h-3.4v6.3h0.5c0.8,0,1.7-0.2,2.6-0.7
						c0.8,0.4,1.8,0.7,3,0.7c1,0,1.9-0.1,2.7-0.3c1.2-0.3,1.8-0.8,1.8-1.5v-4.4C-163.9-286-164.3-286-164.8-285.9"/>
				</g>
				<g id="g52" transform="translate(132.833,17.2412)">
					<path id="path54" d="M-164.8-285.9h-4.8v-1.3h4.8c2.2,0,3.2-0.4,3.2-1.3v-0.9c0-1-1.1-1.5-3.3-1.5h-4.8c-2.2,0-3.4,0.5-3.4,1.6
						v0.4h1.3c0.9,0,1.5-0.1,1.8-0.4c0.1-0.2,0.2-0.3,0.2-0.3h4.7v1.2h-4.7c-1,0-1.7,0-2.1,0.1c-0.9,0.2-1.3,0.6-1.3,1.2v1
						c0,1,1.1,1.5,3.3,1.5h4.8c0.7,0,1.4-0.1,2-0.2c0.9-0.2,1.4-0.6,1.4-1.2v-0.7C-163.6-286.7-164.7-286.5-164.8-285.9"/>
				</g>
				<path id="path56" class="st1" d="M-137.3-258.4h-4.9v-1.2h4.9V-258.4z M-142.4-260.9c-2.1,0-3.2,0.5-3.2,1.6v0.5
					c0,0.7,0.4,1.2,1.1,1.4c0.4,0.1,1,0.2,1.9,0.2h5.2v1.3h-4.9c-1.5,0-2.4,0.4-2.5,1.2v0.1h7.8c0.6,0,1.2-0.1,1.8-0.3
					c0.8-0.2,1.2-0.6,1.2-1.1v-4.9H-142.4z"/>
				<g id="g58" transform="translate(52.0444,25.0566)">
					<path id="path60" class="st1" d="M-164.8-285.9c-0.6,0-1.3,0.1-1.9,0.2c-0.9,0.2-1.4,0.5-1.4,1v3.8h-2.1
						c0.1-0.2,0.1-0.4,0.1-0.5v-4.4h0c-0.7,0-1.3,0.1-1.9,0.3c-0.9,0.3-1.3,0.6-1.3,1.2v3.6h-2v-5h-3.3v6.2h0.5
						c0.9,0,1.7-0.2,2.6-0.6c0.8,0.4,1.6,0.6,2.4,0.6c1.2,0,2.1-0.2,2.7-0.7c0.5,0.3,0.8,0.4,0.9,0.5c0.4,0.2,0.9,0.2,1.5,0.2
						c2.3,0,3.4-0.5,3.4-1.6L-164.8-285.9L-164.8-285.9z"/>
				</g>
				<path id="path62" class="st1" d="M-97.3-258.4h-4.9v-1.2h4.9V-258.4z M-102.3-260.9c-2.1,0-3.2,0.5-3.2,1.6v0.5
					c0,0.7,0.4,1.2,1.1,1.4c0.4,0.1,1,0.2,1.9,0.2h5.2v1.3h-4.9c-1.5,0-2.4,0.4-2.5,1.2v0.1h7.8c0.6,0,1.2-0.1,1.8-0.3
					c0.8-0.2,1.2-0.6,1.2-1.1v-4.9H-102.3z"/>
				<g id="g64" transform="translate(87.9238,28.7529)">
					<path id="path66" class="st1" d="M-164.8-285.9c-1.7,0-2.6,0.4-2.6,1.3h-3.9v-5h-3.4v6.3h0.5c0.8,0,1.7-0.2,2.6-0.7
						c0.8,0.4,1.8,0.7,3,0.7c1,0,1.9-0.1,2.7-0.3c1.2-0.3,1.8-0.8,1.8-1.5v-0.7H-164.8z"/>
				</g>
				<g id="g68" transform="translate(106.4766,25.1045)">
					<path id="path70" class="st1" d="M-164.8-285.9h-0.5c-0.1,0-0.2,0-0.4,0c-0.7,0.1-1.4,0.3-2.1,0.6c-0.8-0.4-1.8-0.7-3-0.7
						c-1,0-1.9,0.1-2.7,0.3c-1.2,0.3-1.9,0.8-1.9,1.5v4.4h1c0.3,0,0.5,0,0.8,0c1-0.1,1.6-0.5,1.6-1.2v-3.7h3.9v5.1h3.4V-285.9z"/>
				</g>
				<g id="g72" transform="translate(115.7168,25.1768)">
					<path id="path74" class="st1" d="M-164.8-285.9c-0.4-0.1-1-0.1-2-0.1v8.8h3.3v-7.5C-163.5-285.3-163.9-285.7-164.8-285.9"/>
				</g>
				<path id="path76" class="st1" d="M-32.3-258.4h-4.9v-1.2h4.9V-258.4z M-37.4-260.9c-2.1,0-3.2,0.5-3.2,1.6v0.5
					c0,0.7,0.4,1.2,1.1,1.4c0.4,0.1,1,0.2,1.9,0.2h5.2v1.3h-4.9c-1.5,0-2.4,0.4-2.5,1.2v0.1h7.8c0.6,0,1.2-0.1,1.8-0.3
					c0.8-0.2,1.2-0.6,1.2-1.1v-4.9H-37.4z"/>
				<g id="g78" transform="translate(124.9551,40.3965)">
					<path id="path80" d="M-164.8-285.9h-44.6c-4.5,0-11.1,3-11.1,11.1v19.4c0,1.1-0.4,5-5,5h-34.3c-4.7,0-5-4.1-5-5v-19.4
						c0-4.6,4-5.1,5.2-5.1h27.8c1.7,0,3-1.3,3-3c0-1.7-1.3-3-3-3h-27.9c-4.5,0-11.1,3-11.1,11.1v19.4c0,4.4,2.9,11,11,11h34.3
						c8,0,11-6.6,11-11v-19.4c0-4.8,4.3-5.1,5.1-5.1h44.6c0.1,0,5.1,0.1,5.1,5.6c0,2.2-0.5,3.7-1.5,4.7c-1.4,1.4-3.5,1.3-3.5,1.3
						l-0.1,0h-34.2c-4.5,0-11.1,3-11.1,11.1v1.7c0,4.4,2.9,11,11,11h34.3c0,0,0.1,0,0.1,0c0,0,0.1,0,0.1,0c8,0,11-6.6,11-11
						c0-1.7-1.3-3-3-3h0c-1.6,0-3,1.3-3,3c0,1.2-0.5,5-5,5c0,0-0.1,0-0.1,0c0,0-0.1,0-0.1,0h-34.3c-4.5,0-4.9-3.8-5-5v-1.7
						c0-4.8,4.3-5.1,5.1-5.1h34.1c0.8,0,4.7,0,7.8-2.9c2.3-2.2,3.4-5.2,3.4-9.1C-153.7-282.8-160.5-285.9-164.8-285.9"/>
				</g>
			</g>
		</g>
	</g>
</g>
</svg>
